<?xml version="1.0" encoding="UTF-8" standalone="no"?>
<!DOCTYPE svg PUBLIC "-//W3C//DTD SVG 1.1//EN"
 "http://www.w3.org/Graphics/SVG/1.1/DTD/svg11.dtd">
<!-- Generated by graphviz version 2.40.1 (20161225.0304)
 -->
<!-- Title: dependencies Pages: 1 -->
<svg width="921pt" height="211pt"
 viewBox="0.00 0.00 921.00 211.00" xmlns="http://www.w3.org/2000/svg" xmlns:xlink="http://www.w3.org/1999/xlink">
<g id="graph0" class="graph" transform="scale(1 1) rotate(0) translate(4 207)">
<title>dependencies</title>
<polygon fill="#ffffff" stroke="transparent" points="-4,4 -4,-207 917,-207 917,4 -4,4"/>
<text text-anchor="start" x="435.5091" y="-42.4" font-family="sans-serif" font-weight="bold" font-size="14.00" fill="#000000">Legend</text>
<polygon fill="#ffffb3" stroke="transparent" points="222.5,-10 222.5,-30 242.5,-30 242.5,-10 222.5,-10"/>
<text text-anchor="start" x="246.129" y="-15.4" font-family="sans-serif" font-size="14.00" fill="#000000"> &#160;Declarations</text>
<polygon fill="#8dd3c7" stroke="transparent" points="335.5,-10 335.5,-30 355.5,-30 355.5,-10 335.5,-10"/>
<text text-anchor="start" x="359.2251" y="-15.4" font-family="sans-serif" font-size="14.00" fill="#000000"> &#160;Module</text>
<polygon fill="#80b1d3" stroke="transparent" points="421.5,-10 421.5,-30 441.5,-30 441.5,-10 421.5,-10"/>
<text text-anchor="start" x="445.2812" y="-15.4" font-family="sans-serif" font-size="14.00" fill="#000000"> &#160;Bootstrap</text>
<polygon fill="#fdb462" stroke="transparent" points="518.5,-10 518.5,-30 538.5,-30 538.5,-10 518.5,-10"/>
<text text-anchor="start" x="542.1732" y="-15.4" font-family="sans-serif" font-size="14.00" fill="#000000"> &#160;Providers</text>
<polygon fill="#fb8072" stroke="transparent" points="614.5,-10 614.5,-30 634.5,-30 634.5,-10 614.5,-10"/>
<text text-anchor="start" x="638.2258" y="-15.4" font-family="sans-serif" font-size="14.00" fill="#000000"> &#160;Exports</text>
<g id="clust1" class="cluster">
<title>cluster_CommonModule</title>
<polygon fill="none" stroke="#000000" stroke-dasharray="1,5" points="8,-70 8,-195 905,-195 905,-70 8,-70"/>
</g>
<g id="clust2" class="cluster">
<title>cluster_CommonModule_declarations</title>
<polygon fill="none" stroke="#000000" points="466,-78 466,-130 897,-130 897,-78 466,-78"/>
</g>
<g id="clust6" class="cluster">
<title>cluster_CommonModule_imports</title>
<polygon fill="none" stroke="#000000" points="16,-78 16,-130 458,-130 458,-78 16,-78"/>
</g>
<!-- CommonComponent -->
<g id="node1" class="node">
<title>CommonComponent</title>
<polygon fill="#ffffb3" stroke="#000000" points="888.951,-122 755.049,-122 755.049,-86 888.951,-86 888.951,-122"/>
<text text-anchor="middle" x="822" y="-99.8" font-family="Times,serif" font-size="14.00" fill="#000000">CommonComponent</text>
</g>
<!-- CommonModule -->
<g id="node4" class="node">
<title>CommonModule</title>
<polygon fill="#8dd3c7" stroke="#000000" points="452.6681,-187 449.6681,-191 428.6681,-191 425.6681,-187 341.3319,-187 341.3319,-151 452.6681,-151 452.6681,-187"/>
<text text-anchor="middle" x="397" y="-164.8" font-family="Times,serif" font-size="14.00" fill="#000000">CommonModule</text>
</g>
<!-- CommonComponent&#45;&gt;CommonModule -->
<g id="edge1" class="edge">
<title>CommonComponent&#45;&gt;CommonModule</title>
<path fill="none" stroke="#000000" d="M822,-122.2921C822,-144.2057 822,-178 822,-178 822,-178 462.9984,-178 462.9984,-178"/>
<polygon fill="#000000" stroke="#000000" points="462.9984,-174.5001 452.9984,-178 462.9983,-181.5001 462.9984,-174.5001"/>
</g>
<!-- NavBarComponent -->
<g id="node2" class="node">
<title>NavBarComponent</title>
<polygon fill="#ffffb3" stroke="#000000" points="737.3655,-122 612.6345,-122 612.6345,-86 737.3655,-86 737.3655,-122"/>
<text text-anchor="middle" x="675" y="-99.8" font-family="Times,serif" font-size="14.00" fill="#000000">NavBarComponent</text>
</g>
<!-- NavBarComponent&#45;&gt;CommonModule -->
<g id="edge2" class="edge">
<title>NavBarComponent&#45;&gt;CommonModule</title>
<path fill="none" stroke="#000000" d="M675,-122.1061C675,-141.3391 675,-169 675,-169 675,-169 462.923,-169 462.923,-169"/>
<polygon fill="#000000" stroke="#000000" points="462.9231,-165.5001 452.923,-169 462.923,-172.5001 462.9231,-165.5001"/>
</g>
<!-- ClocksComponent -->
<g id="node3" class="node">
<title>ClocksComponent</title>
<polygon fill="#ffffb3" stroke="#000000" points="594.219,-122 473.781,-122 473.781,-86 594.219,-86 594.219,-122"/>
<text text-anchor="middle" x="534" y="-99.8" font-family="Times,serif" font-size="14.00" fill="#000000">ClocksComponent</text>
</g>
<!-- ClocksComponent&#45;&gt;CommonModule -->
<g id="edge3" class="edge">
<title>ClocksComponent&#45;&gt;CommonModule</title>
<path fill="none" stroke="#000000" d="M534,-122.027C534,-138.3976 534,-160 534,-160 534,-160 462.7231,-160 462.7231,-160"/>
<polygon fill="#000000" stroke="#000000" points="462.7232,-156.5001 452.7231,-160 462.7231,-163.5001 462.7232,-156.5001"/>
</g>
<!-- BrowserModule -->
<g id="node5" class="node">
<title>BrowserModule</title>
<polygon fill="#8dd3c7" stroke="#000000" points="450.4734,-122 447.4734,-126 426.4734,-126 423.4734,-122 343.5266,-122 343.5266,-86 450.4734,-86 450.4734,-122"/>
<text text-anchor="middle" x="397" y="-99.8" font-family="Times,serif" font-size="14.00" fill="#000000">BrowserModule</text>
</g>
<!-- BrowserModule&#45;&gt;CommonModule -->
<g id="edge4" class="edge">
<title>BrowserModule&#45;&gt;CommonModule</title>
<path fill="none" stroke="#000000" d="M397,-122.1061C397,-122.1061 397,-140.991 397,-140.991"/>
<polygon fill="#000000" stroke="#000000" points="393.5001,-140.9909 397,-150.991 400.5001,-140.991 393.5001,-140.9909"/>
</g>
<!-- routing -->
<g id="node6" class="node">
<title>routing</title>
<polygon fill="#8dd3c7" stroke="#000000" points="325.4435,-122 322.4435,-126 301.4435,-126 298.4435,-122 268.5565,-122 268.5565,-86 325.4435,-86 325.4435,-122"/>
<text text-anchor="middle" x="297" y="-99.8" font-family="Times,serif" font-size="14.00" fill="#000000">routing</text>
</g>
<!-- routing&#45;&gt;CommonModule -->
<g id="edge5" class="edge">
<title>routing&#45;&gt;CommonModule</title>
<path fill="none" stroke="#000000" d="M297,-122.027C297,-138.3976 297,-160 297,-160 297,-160 331.1525,-160 331.1525,-160"/>
<polygon fill="#000000" stroke="#000000" points="331.1526,-163.5001 341.1525,-160 331.1525,-156.5001 331.1526,-163.5001"/>
</g>
<!-- ContactsModule -->
<g id="node7" class="node">
<title>ContactsModule</title>
<polygon fill="#8dd3c7" stroke="#000000" points="251.0424,-122 248.0424,-126 227.0424,-126 224.0424,-122 142.9576,-122 142.9576,-86 251.0424,-86 251.0424,-122"/>
<text text-anchor="middle" x="197" y="-99.8" font-family="Times,serif" font-size="14.00" fill="#000000">ContactsModule</text>
</g>
<!-- ContactsModule&#45;&gt;CommonModule -->
<g id="edge6" class="edge">
<title>ContactsModule&#45;&gt;CommonModule</title>
<path fill="none" stroke="#000000" d="M197,-122.1061C197,-141.3391 197,-169 197,-169 197,-169 331.2888,-169 331.2888,-169"/>
<polygon fill="#000000" stroke="#000000" points="331.2889,-172.5001 341.2888,-169 331.2888,-165.5001 331.2889,-172.5001"/>
</g>
<!-- GroupsModule -->
<g id="node8" class="node">
<title>GroupsModule</title>
<polygon fill="#8dd3c7" stroke="#000000" points="124.2619,-122 121.2619,-126 100.2619,-126 97.2619,-122 23.7381,-122 23.7381,-86 124.2619,-86 124.2619,-122"/>
<text text-anchor="middle" x="74" y="-99.8" font-family="Times,serif" font-size="14.00" fill="#000000">GroupsModule</text>
</g>
<!-- GroupsModule&#45;&gt;CommonModule -->
<g id="edge7" class="edge">
<title>GroupsModule&#45;&gt;CommonModule</title>
<path fill="none" stroke="#000000" d="M74,-122.2921C74,-144.2057 74,-178 74,-178 74,-178 331.1064,-178 331.1064,-178"/>
<polygon fill="#000000" stroke="#000000" points="331.1065,-181.5001 341.1064,-178 331.1064,-174.5001 331.1065,-181.5001"/>
</g>
</g>
</svg>
