<?xml version="1.0" encoding="UTF-8" standalone="no"?>
<!DOCTYPE svg PUBLIC "-//W3C//DTD SVG 1.1//EN"
 "http://www.w3.org/Graphics/SVG/1.1/DTD/svg11.dtd">
<!-- Generated by graphviz version 2.40.1 (20161225.0304)
 -->
<!-- Title: dependencies Pages: 1 -->
<svg width="933pt" height="284pt"
 viewBox="0.00 0.00 933.00 284.00" xmlns="http://www.w3.org/2000/svg" xmlns:xlink="http://www.w3.org/1999/xlink">
<g id="graph0" class="graph" transform="scale(1 1) rotate(0) translate(4 280)">
<title>dependencies</title>
<polygon fill="#ffffff" stroke="transparent" points="-4,4 -4,-280 929,-280 929,4 -4,4"/>
<text text-anchor="start" x="441.5091" y="-42.4" font-family="sans-serif" font-weight="bold" font-size="14.00" fill="#000000">Legend</text>
<polygon fill="#ffffb3" stroke="transparent" points="228.5,-10 228.5,-30 248.5,-30 248.5,-10 228.5,-10"/>
<text text-anchor="start" x="252.129" y="-15.4" font-family="sans-serif" font-size="14.00" fill="#000000"> &#160;Declarations</text>
<polygon fill="#8dd3c7" stroke="transparent" points="341.5,-10 341.5,-30 361.5,-30 361.5,-10 341.5,-10"/>
<text text-anchor="start" x="365.2251" y="-15.4" font-family="sans-serif" font-size="14.00" fill="#000000"> &#160;Module</text>
<polygon fill="#80b1d3" stroke="transparent" points="427.5,-10 427.5,-30 447.5,-30 447.5,-10 427.5,-10"/>
<text text-anchor="start" x="451.2812" y="-15.4" font-family="sans-serif" font-size="14.00" fill="#000000"> &#160;Bootstrap</text>
<polygon fill="#fdb462" stroke="transparent" points="524.5,-10 524.5,-30 544.5,-30 544.5,-10 524.5,-10"/>
<text text-anchor="start" x="548.1732" y="-15.4" font-family="sans-serif" font-size="14.00" fill="#000000"> &#160;Providers</text>
<polygon fill="#fb8072" stroke="transparent" points="620.5,-10 620.5,-30 640.5,-30 640.5,-10 620.5,-10"/>
<text text-anchor="start" x="644.2258" y="-15.4" font-family="sans-serif" font-size="14.00" fill="#000000"> &#160;Exports</text>
<g id="clust1" class="cluster">
<title>cluster_PopupModule</title>
<polygon fill="none" stroke="#000000" stroke-dasharray="1,5" points="8,-70 8,-268 917,-268 917,-70 8,-70"/>
</g>
<g id="clust2" class="cluster">
<title>cluster_PopupModule_declarations</title>
<polygon fill="none" stroke="#000000" points="260,-78 260,-130 909,-130 909,-78 260,-78"/>
</g>
<g id="clust7" class="cluster">
<title>cluster_PopupModule_imports</title>
<polygon fill="none" stroke="#000000" points="16,-78 16,-130 252,-130 252,-78 16,-78"/>
</g>
<g id="clust8" class="cluster">
<title>cluster_PopupModule_exports</title>
<polygon fill="none" stroke="#000000" points="368,-208 368,-260 504,-260 504,-208 368,-208"/>
</g>
<!-- PopupComponent -->
<g id="node1" class="node">
<title>PopupComponent</title>
<polygon fill="#ffffb3" stroke="#000000" points="900.6151,-122 783.3849,-122 783.3849,-86 900.6151,-86 900.6151,-122"/>
<text text-anchor="middle" x="842" y="-99.8" font-family="Times,serif" font-size="14.00" fill="#000000">PopupComponent</text>
</g>
<!-- PopupModule -->
<g id="node5" class="node">
<title>PopupModule</title>
<polygon fill="#8dd3c7" stroke="#000000" points="483.833,-187 480.833,-191 459.833,-191 456.833,-187 388.167,-187 388.167,-151 483.833,-151 483.833,-187"/>
<text text-anchor="middle" x="436" y="-164.8" font-family="Times,serif" font-size="14.00" fill="#000000">PopupModule</text>
</g>
<!-- PopupComponent&#45;&gt;PopupModule -->
<g id="edge1" class="edge">
<title>PopupComponent&#45;&gt;PopupModule</title>
<path fill="none" stroke="#000000" d="M842,-122.2843C842,-143.3211 842,-175 842,-175 842,-175 493.7672,-175 493.7672,-175"/>
<polygon fill="#000000" stroke="#000000" points="493.7673,-171.5001 483.7672,-175 493.7672,-178.5001 493.7673,-171.5001"/>
</g>
<!-- AddUserComponent -->
<g id="node2" class="node">
<title>AddUserComponent</title>
<polygon fill="#ffffb3" stroke="#000000" points="765.8655,-122 634.1345,-122 634.1345,-86 765.8655,-86 765.8655,-122"/>
<text text-anchor="middle" x="700" y="-99.8" font-family="Times,serif" font-size="14.00" fill="#000000">AddUserComponent</text>
</g>
<!-- AddUserComponent&#45;&gt;PopupModule -->
<g id="edge2" class="edge">
<title>AddUserComponent&#45;&gt;PopupModule</title>
<path fill="none" stroke="#000000" d="M700,-122.0225C700,-139.3734 700,-163 700,-163 700,-163 493.8084,-163 493.8084,-163"/>
<polygon fill="#000000" stroke="#000000" points="493.8084,-159.5001 483.8084,-163 493.8084,-166.5001 493.8084,-159.5001"/>
</g>
<!-- RemoveContactsComponent -->
<g id="node3" class="node">
<title>RemoveContactsComponent</title>
<polygon fill="#ffffb3" stroke="#000000" points="616.4804,-122 439.5196,-122 439.5196,-86 616.4804,-86 616.4804,-122"/>
<text text-anchor="middle" x="528" y="-99.8" font-family="Times,serif" font-size="14.00" fill="#000000">RemoveContactsComponent</text>
</g>
<!-- RemoveContactsComponent&#45;&gt;PopupModule -->
<g id="edge3" class="edge">
<title>RemoveContactsComponent&#45;&gt;PopupModule</title>
<path fill="none" stroke="#000000" d="M461.588,-122.1061C461.588,-122.1061 461.588,-140.991 461.588,-140.991"/>
<polygon fill="#000000" stroke="#000000" points="458.0881,-140.9909 461.588,-150.991 465.0881,-140.991 458.0881,-140.9909"/>
</g>
<!-- EditContactsComponent -->
<g id="node4" class="node">
<title>EditContactsComponent</title>
<polygon fill="#ffffb3" stroke="#000000" points="421.6582,-122 268.3418,-122 268.3418,-86 421.6582,-86 421.6582,-122"/>
<text text-anchor="middle" x="345" y="-99.8" font-family="Times,serif" font-size="14.00" fill="#000000">EditContactsComponent</text>
</g>
<!-- EditContactsComponent&#45;&gt;PopupModule -->
<g id="edge4" class="edge">
<title>EditContactsComponent&#45;&gt;PopupModule</title>
<path fill="none" stroke="#000000" d="M405.0814,-122.1061C405.0814,-122.1061 405.0814,-140.991 405.0814,-140.991"/>
<polygon fill="#000000" stroke="#000000" points="401.5814,-140.9909 405.0814,-150.991 408.5814,-140.991 401.5814,-140.9909"/>
</g>
<!-- PopupComponent  -->
<g id="node8" class="node">
<title>PopupComponent </title>
<polygon fill="#fb8072" stroke="#000000" points="496.1156,-252 375.8844,-252 375.8844,-216 496.1156,-216 496.1156,-252"/>
<text text-anchor="middle" x="436" y="-229.8" font-family="Times,serif" font-size="14.00" fill="#000000">PopupComponent </text>
</g>
<!-- PopupModule&#45;&gt;PopupComponent  -->
<g id="edge7" class="edge">
<title>PopupModule&#45;&gt;PopupComponent </title>
<path fill="none" stroke="#000000" stroke-dasharray="5,2" d="M436,-187.1061C436,-187.1061 436,-205.991 436,-205.991"/>
<polygon fill="#000000" stroke="#000000" points="432.5001,-205.9909 436,-215.991 439.5001,-205.991 432.5001,-205.9909"/>
</g>
<!-- BrowserModule -->
<g id="node6" class="node">
<title>BrowserModule</title>
<polygon fill="#8dd3c7" stroke="#000000" points="244.4734,-122 241.4734,-126 220.4734,-126 217.4734,-122 137.5266,-122 137.5266,-86 244.4734,-86 244.4734,-122"/>
<text text-anchor="middle" x="191" y="-99.8" font-family="Times,serif" font-size="14.00" fill="#000000">BrowserModule</text>
</g>
<!-- BrowserModule&#45;&gt;PopupModule -->
<g id="edge5" class="edge">
<title>BrowserModule&#45;&gt;PopupModule</title>
<path fill="none" stroke="#000000" d="M191,-122.0225C191,-139.3734 191,-163 191,-163 191,-163 378.1799,-163 378.1799,-163"/>
<polygon fill="#000000" stroke="#000000" points="378.18,-166.5001 388.1799,-163 378.1799,-159.5001 378.18,-166.5001"/>
</g>
<!-- FormsModule -->
<g id="node7" class="node">
<title>FormsModule</title>
<polygon fill="#8dd3c7" stroke="#000000" points="119.8288,-122 116.8288,-126 95.8288,-126 92.8288,-122 24.1712,-122 24.1712,-86 119.8288,-86 119.8288,-122"/>
<text text-anchor="middle" x="72" y="-99.8" font-family="Times,serif" font-size="14.00" fill="#000000">FormsModule</text>
</g>
<!-- FormsModule&#45;&gt;PopupModule -->
<g id="edge6" class="edge">
<title>FormsModule&#45;&gt;PopupModule</title>
<path fill="none" stroke="#000000" d="M72,-122.2843C72,-143.3211 72,-175 72,-175 72,-175 378.0391,-175 378.0391,-175"/>
<polygon fill="#000000" stroke="#000000" points="378.0391,-178.5001 388.0391,-175 378.039,-171.5001 378.0391,-178.5001"/>
</g>
</g>
</svg>
