<?xml version="1.0" encoding="UTF-8" standalone="no"?>
<!DOCTYPE svg PUBLIC "-//W3C//DTD SVG 1.1//EN"
 "http://www.w3.org/Graphics/SVG/1.1/DTD/svg11.dtd">
<!-- Generated by graphviz version 2.40.1 (20161225.0304)
 -->
<!-- Title: dependencies Pages: 1 -->
<svg width="504pt" height="284pt"
 viewBox="0.00 0.00 504.00 284.00" xmlns="http://www.w3.org/2000/svg" xmlns:xlink="http://www.w3.org/1999/xlink">
<g id="graph0" class="graph" transform="scale(1 1) rotate(0) translate(4 280)">
<title>dependencies</title>
<polygon fill="#ffffff" stroke="transparent" points="-4,4 -4,-280 500,-280 500,4 -4,4"/>
<text text-anchor="start" x="227.0091" y="-42.4" font-family="sans-serif" font-weight="bold" font-size="14.00" fill="#000000">Legend</text>
<polygon fill="#ffffb3" stroke="transparent" points="14,-10 14,-30 34,-30 34,-10 14,-10"/>
<text text-anchor="start" x="37.629" y="-15.4" font-family="sans-serif" font-size="14.00" fill="#000000"> &#160;Declarations</text>
<polygon fill="#8dd3c7" stroke="transparent" points="127,-10 127,-30 147,-30 147,-10 127,-10"/>
<text text-anchor="start" x="150.7251" y="-15.4" font-family="sans-serif" font-size="14.00" fill="#000000"> &#160;Module</text>
<polygon fill="#80b1d3" stroke="transparent" points="213,-10 213,-30 233,-30 233,-10 213,-10"/>
<text text-anchor="start" x="236.7812" y="-15.4" font-family="sans-serif" font-size="14.00" fill="#000000"> &#160;Bootstrap</text>
<polygon fill="#fdb462" stroke="transparent" points="310,-10 310,-30 330,-30 330,-10 310,-10"/>
<text text-anchor="start" x="333.6732" y="-15.4" font-family="sans-serif" font-size="14.00" fill="#000000"> &#160;Providers</text>
<polygon fill="#fb8072" stroke="transparent" points="406,-10 406,-30 426,-30 426,-10 406,-10"/>
<text text-anchor="start" x="429.7258" y="-15.4" font-family="sans-serif" font-size="14.00" fill="#000000"> &#160;Exports</text>
<g id="clust1" class="cluster">
<title>cluster_GroupsModule</title>
<polygon fill="none" stroke="#000000" stroke-dasharray="1,5" points="113,-70 113,-268 383,-268 383,-70 113,-70"/>
</g>
<g id="clust2" class="cluster">
<title>cluster_GroupsModule_declarations</title>
<polygon fill="none" stroke="#000000" points="237,-78 237,-130 375,-130 375,-78 237,-78"/>
</g>
<g id="clust4" class="cluster">
<title>cluster_GroupsModule_imports</title>
<polygon fill="none" stroke="#000000" points="121,-78 121,-130 229,-130 229,-78 121,-78"/>
</g>
<g id="clust5" class="cluster">
<title>cluster_GroupsModule_exports</title>
<polygon fill="none" stroke="#000000" points="177,-208 177,-260 319,-260 319,-208 177,-208"/>
</g>
<!-- GroupsComponent -->
<g id="node1" class="node">
<title>GroupsComponent</title>
<polygon fill="#ffffb3" stroke="#000000" points="367.045,-122 244.955,-122 244.955,-86 367.045,-86 367.045,-122"/>
<text text-anchor="middle" x="306" y="-99.8" font-family="Times,serif" font-size="14.00" fill="#000000">GroupsComponent</text>
</g>
<!-- GroupsModule -->
<g id="node2" class="node">
<title>GroupsModule</title>
<polygon fill="#8dd3c7" stroke="#000000" points="298.2619,-187 295.2619,-191 274.2619,-191 271.2619,-187 197.7381,-187 197.7381,-151 298.2619,-151 298.2619,-187"/>
<text text-anchor="middle" x="248" y="-164.8" font-family="Times,serif" font-size="14.00" fill="#000000">GroupsModule</text>
</g>
<!-- GroupsComponent&#45;&gt;GroupsModule -->
<g id="edge1" class="edge">
<title>GroupsComponent&#45;&gt;GroupsModule</title>
<path fill="none" stroke="#000000" d="M271.5544,-122.1061C271.5544,-122.1061 271.5544,-140.991 271.5544,-140.991"/>
<polygon fill="#000000" stroke="#000000" points="268.0544,-140.9909 271.5544,-150.991 275.0544,-140.991 268.0544,-140.9909"/>
</g>
<!-- GroupsComponent  -->
<g id="node4" class="node">
<title>GroupsComponent </title>
<polygon fill="#fb8072" stroke="#000000" points="311.0442,-252 184.9558,-252 184.9558,-216 311.0442,-216 311.0442,-252"/>
<text text-anchor="middle" x="248" y="-229.8" font-family="Times,serif" font-size="14.00" fill="#000000">GroupsComponent </text>
</g>
<!-- GroupsModule&#45;&gt;GroupsComponent  -->
<g id="edge3" class="edge">
<title>GroupsModule&#45;&gt;GroupsComponent </title>
<path fill="none" stroke="#000000" stroke-dasharray="5,2" d="M248,-187.1061C248,-187.1061 248,-205.991 248,-205.991"/>
<polygon fill="#000000" stroke="#000000" points="244.5001,-205.9909 248,-215.991 251.5001,-205.991 244.5001,-205.9909"/>
</g>
<!-- MenuModule -->
<g id="node3" class="node">
<title>MenuModule</title>
<polygon fill="#8dd3c7" stroke="#000000" points="221.2092,-122 218.2092,-126 197.2092,-126 194.2092,-122 128.7908,-122 128.7908,-86 221.2092,-86 221.2092,-122"/>
<text text-anchor="middle" x="175" y="-99.8" font-family="Times,serif" font-size="14.00" fill="#000000">MenuModule</text>
</g>
<!-- MenuModule&#45;&gt;GroupsModule -->
<g id="edge2" class="edge">
<title>MenuModule&#45;&gt;GroupsModule</title>
<path fill="none" stroke="#000000" d="M209.3619,-122.1061C209.3619,-122.1061 209.3619,-140.991 209.3619,-140.991"/>
<polygon fill="#000000" stroke="#000000" points="205.8619,-140.9909 209.3619,-150.991 212.8619,-140.991 205.8619,-140.9909"/>
</g>
</g>
</svg>
