<?xml version="1.0" encoding="UTF-8" standalone="no"?>
<!DOCTYPE svg PUBLIC "-//W3C//DTD SVG 1.1//EN"
 "http://www.w3.org/Graphics/SVG/1.1/DTD/svg11.dtd">
<!-- Generated by graphviz version 2.40.1 (20161225.0304)
 -->
<!-- Title: dependencies Pages: 1 -->
<svg width="1193pt" height="284pt"
 viewBox="0.00 0.00 1193.00 284.00" xmlns="http://www.w3.org/2000/svg" xmlns:xlink="http://www.w3.org/1999/xlink">
<g id="graph0" class="graph" transform="scale(1 1) rotate(0) translate(4 280)">
<title>dependencies</title>
<polygon fill="#ffffff" stroke="transparent" points="-4,4 -4,-280 1189,-280 1189,4 -4,4"/>
<text text-anchor="start" x="571.5091" y="-42.4" font-family="sans-serif" font-weight="bold" font-size="14.00" fill="#000000">Legend</text>
<polygon fill="#ffffb3" stroke="transparent" points="358.5,-10 358.5,-30 378.5,-30 378.5,-10 358.5,-10"/>
<text text-anchor="start" x="382.129" y="-15.4" font-family="sans-serif" font-size="14.00" fill="#000000"> &#160;Declarations</text>
<polygon fill="#8dd3c7" stroke="transparent" points="471.5,-10 471.5,-30 491.5,-30 491.5,-10 471.5,-10"/>
<text text-anchor="start" x="495.2251" y="-15.4" font-family="sans-serif" font-size="14.00" fill="#000000"> &#160;Module</text>
<polygon fill="#80b1d3" stroke="transparent" points="557.5,-10 557.5,-30 577.5,-30 577.5,-10 557.5,-10"/>
<text text-anchor="start" x="581.2812" y="-15.4" font-family="sans-serif" font-size="14.00" fill="#000000"> &#160;Bootstrap</text>
<polygon fill="#fdb462" stroke="transparent" points="654.5,-10 654.5,-30 674.5,-30 674.5,-10 654.5,-10"/>
<text text-anchor="start" x="678.1732" y="-15.4" font-family="sans-serif" font-size="14.00" fill="#000000"> &#160;Providers</text>
<polygon fill="#fb8072" stroke="transparent" points="750.5,-10 750.5,-30 770.5,-30 770.5,-10 750.5,-10"/>
<text text-anchor="start" x="774.2258" y="-15.4" font-family="sans-serif" font-size="14.00" fill="#000000"> &#160;Exports</text>
<g id="clust1" class="cluster">
<title>cluster_AppModule</title>
<polygon fill="none" stroke="#000000" stroke-dasharray="1,5" points="8,-70 8,-268 1177,-268 1177,-70 8,-70"/>
</g>
<g id="clust2" class="cluster">
<title>cluster_AppModule_declarations</title>
<polygon fill="none" stroke="#000000" points="1047,-78 1047,-130 1169,-130 1169,-78 1047,-78"/>
</g>
<g id="clust4" class="cluster">
<title>cluster_AppModule_imports</title>
<polygon fill="none" stroke="#000000" points="98,-78 98,-130 1039,-130 1039,-78 98,-78"/>
</g>
<g id="clust6" class="cluster">
<title>cluster_AppModule_bootstrap</title>
<polygon fill="none" stroke="#000000" points="545,-208 545,-260 669,-260 669,-208 545,-208"/>
</g>
<g id="clust7" class="cluster">
<title>cluster_AppModule_providers</title>
<polygon fill="none" stroke="#000000" points="16,-78 16,-130 90,-130 90,-78 16,-78"/>
</g>
<!-- AppComponent -->
<g id="node1" class="node">
<title>AppComponent</title>
<polygon fill="#ffffb3" stroke="#000000" points="1160.9399,-122 1055.0601,-122 1055.0601,-86 1160.9399,-86 1160.9399,-122"/>
<text text-anchor="middle" x="1108" y="-99.8" font-family="Times,serif" font-size="14.00" fill="#000000">AppComponent</text>
</g>
<!-- AppModule -->
<g id="node2" class="node">
<title>AppModule</title>
<polygon fill="#8dd3c7" stroke="#000000" points="648.6571,-187 645.6571,-191 624.6571,-191 621.6571,-187 565.3429,-187 565.3429,-151 648.6571,-151 648.6571,-187"/>
<text text-anchor="middle" x="607" y="-164.8" font-family="Times,serif" font-size="14.00" fill="#000000">AppModule</text>
</g>
<!-- AppComponent&#45;&gt;AppModule -->
<g id="edge1" class="edge">
<title>AppComponent&#45;&gt;AppModule</title>
<path fill="none" stroke="#000000" d="M1108,-122.0109C1108,-144.4852 1108,-180 1108,-180 1108,-180 658.8533,-180 658.8533,-180"/>
<polygon fill="#000000" stroke="#000000" points="658.8533,-176.5001 648.8533,-180 658.8532,-183.5001 658.8533,-176.5001"/>
</g>
<!-- AppComponent  -->
<g id="node10" class="node">
<title>AppComponent </title>
<polygon fill="#80b1d3" stroke="#000000" points="661.439,-252 552.561,-252 552.561,-216 661.439,-216 661.439,-252"/>
<text text-anchor="middle" x="607" y="-229.8" font-family="Times,serif" font-size="14.00" fill="#000000">AppComponent </text>
</g>
<!-- AppModule&#45;&gt;AppComponent  -->
<g id="edge9" class="edge">
<title>AppModule&#45;&gt;AppComponent </title>
<path fill="none" stroke="#000000" stroke-dasharray="1,5" d="M607,-187.1061C607,-187.1061 607,-205.991 607,-205.991"/>
<polygon fill="#000000" stroke="#000000" points="603.5001,-205.9909 607,-215.991 610.5001,-205.991 603.5001,-205.9909"/>
</g>
<!-- BrowserModule -->
<g id="node3" class="node">
<title>BrowserModule</title>
<polygon fill="#8dd3c7" stroke="#000000" points="1031.4734,-122 1028.4734,-126 1007.4734,-126 1004.4734,-122 924.5266,-122 924.5266,-86 1031.4734,-86 1031.4734,-122"/>
<text text-anchor="middle" x="978" y="-99.8" font-family="Times,serif" font-size="14.00" fill="#000000">BrowserModule</text>
</g>
<!-- BrowserModule&#45;&gt;AppModule -->
<g id="edge2" class="edge">
<title>BrowserModule&#45;&gt;AppModule</title>
<path fill="none" stroke="#000000" d="M978,-122.1289C978,-142.5724 978,-173 978,-173 978,-173 658.8372,-173 658.8372,-173"/>
<polygon fill="#000000" stroke="#000000" points="658.8373,-169.5001 648.8372,-173 658.8372,-176.5001 658.8373,-169.5001"/>
</g>
<!-- routing -->
<g id="node4" class="node">
<title>routing</title>
<polygon fill="#8dd3c7" stroke="#000000" points="906.4435,-122 903.4435,-126 882.4435,-126 879.4435,-122 849.5565,-122 849.5565,-86 906.4435,-86 906.4435,-122"/>
<text text-anchor="middle" x="878" y="-99.8" font-family="Times,serif" font-size="14.00" fill="#000000">routing</text>
</g>
<!-- routing&#45;&gt;AppModule -->
<g id="edge3" class="edge">
<title>routing&#45;&gt;AppModule</title>
<path fill="none" stroke="#000000" d="M878,-122.2667C878,-140.5552 878,-166 878,-166 878,-166 658.7498,-166 658.7498,-166"/>
<polygon fill="#000000" stroke="#000000" points="658.7499,-162.5001 648.7498,-166 658.7498,-169.5001 658.7499,-162.5001"/>
</g>
<!-- HttpModule -->
<g id="node5" class="node">
<title>HttpModule</title>
<polygon fill="#8dd3c7" stroke="#000000" points="832.4387,-122 829.4387,-126 808.4387,-126 805.4387,-122 747.5613,-122 747.5613,-86 832.4387,-86 832.4387,-122"/>
<text text-anchor="middle" x="790" y="-99.8" font-family="Times,serif" font-size="14.00" fill="#000000">HttpModule</text>
</g>
<!-- HttpModule&#45;&gt;AppModule -->
<g id="edge4" class="edge">
<title>HttpModule&#45;&gt;AppModule</title>
<path fill="none" stroke="#000000" d="M790,-122.0091C790,-138.0494 790,-159 790,-159 790,-159 658.9839,-159 658.9839,-159"/>
<polygon fill="#000000" stroke="#000000" points="658.9839,-155.5001 648.9839,-159 658.9839,-162.5001 658.9839,-155.5001"/>
</g>
<!-- InMemoryWebApiModule.forRoot(args) -->
<g id="node6" class="node">
<title>InMemoryWebApiModule.forRoot(args)</title>
<polygon fill="#8dd3c7" stroke="#000000" points="730.037,-122 727.037,-126 706.037,-126 703.037,-122 483.963,-122 483.963,-86 730.037,-86 730.037,-122"/>
<text text-anchor="middle" x="607" y="-99.8" font-family="Times,serif" font-size="14.00" fill="#000000">InMemoryWebApiModule.forRoot(args)</text>
</g>
<!-- InMemoryWebApiModule.forRoot(args)&#45;&gt;AppModule -->
<g id="edge5" class="edge">
<title>InMemoryWebApiModule.forRoot(args)&#45;&gt;AppModule</title>
<path fill="none" stroke="#000000" d="M607,-122.1061C607,-122.1061 607,-140.991 607,-140.991"/>
<polygon fill="#000000" stroke="#000000" points="603.5001,-140.9909 607,-150.991 610.5001,-140.991 603.5001,-140.9909"/>
</g>
<!-- CommonModule -->
<g id="node7" class="node">
<title>CommonModule</title>
<polygon fill="#8dd3c7" stroke="#000000" points="465.6681,-122 462.6681,-126 441.6681,-126 438.6681,-122 354.3319,-122 354.3319,-86 465.6681,-86 465.6681,-122"/>
<text text-anchor="middle" x="410" y="-99.8" font-family="Times,serif" font-size="14.00" fill="#000000">CommonModule</text>
</g>
<!-- CommonModule&#45;&gt;AppModule -->
<g id="edge6" class="edge">
<title>CommonModule&#45;&gt;AppModule</title>
<path fill="none" stroke="#000000" d="M410,-122.0091C410,-138.0494 410,-159 410,-159 410,-159 555.2214,-159 555.2214,-159"/>
<polygon fill="#000000" stroke="#000000" points="555.2214,-162.5001 565.2214,-159 555.2213,-155.5001 555.2214,-162.5001"/>
</g>
<!-- NotFoundModule -->
<g id="node8" class="node">
<title>NotFoundModule</title>
<polygon fill="#8dd3c7" stroke="#000000" points="336.3301,-122 333.3301,-126 312.3301,-126 309.3301,-122 219.6699,-122 219.6699,-86 336.3301,-86 336.3301,-122"/>
<text text-anchor="middle" x="278" y="-99.8" font-family="Times,serif" font-size="14.00" fill="#000000">NotFoundModule</text>
</g>
<!-- NotFoundModule&#45;&gt;AppModule -->
<g id="edge7" class="edge">
<title>NotFoundModule&#45;&gt;AppModule</title>
<path fill="none" stroke="#000000" d="M278,-122.2667C278,-140.5552 278,-166 278,-166 278,-166 555.3319,-166 555.3319,-166"/>
<polygon fill="#000000" stroke="#000000" points="555.332,-169.5001 565.3319,-166 555.3319,-162.5001 555.332,-169.5001"/>
</g>
<!-- PopupModule -->
<g id="node9" class="node">
<title>PopupModule</title>
<polygon fill="#8dd3c7" stroke="#000000" points="201.833,-122 198.833,-126 177.833,-126 174.833,-122 106.167,-122 106.167,-86 201.833,-86 201.833,-122"/>
<text text-anchor="middle" x="154" y="-99.8" font-family="Times,serif" font-size="14.00" fill="#000000">PopupModule</text>
</g>
<!-- PopupModule&#45;&gt;AppModule -->
<g id="edge8" class="edge">
<title>PopupModule&#45;&gt;AppModule</title>
<path fill="none" stroke="#000000" d="M154,-122.1289C154,-142.5724 154,-173 154,-173 154,-173 555.1948,-173 555.1948,-173"/>
<polygon fill="#000000" stroke="#000000" points="555.1949,-176.5001 565.1948,-173 555.1948,-169.5001 555.1949,-176.5001"/>
</g>
<!-- Title -->
<g id="node11" class="node">
<title>Title</title>
<ellipse fill="#fdb462" stroke="#000000" cx="53" cy="-104" rx="29.049" ry="18"/>
<text text-anchor="middle" x="53" y="-99.8" font-family="Times,serif" font-size="14.00" fill="#000000">Title</text>
</g>
<!-- Title&#45;&gt;AppModule -->
<g id="edge10" class="edge">
<title>Title&#45;&gt;AppModule</title>
<path fill="none" stroke="#000000" d="M53,-122.0109C53,-144.4852 53,-180 53,-180 53,-180 554.9052,-180 554.9052,-180"/>
<polygon fill="#000000" stroke="#000000" points="554.9053,-183.5001 564.9052,-180 554.9052,-176.5001 554.9053,-183.5001"/>
</g>
</g>
</svg>
