<?xml version="1.0" encoding="UTF-8" standalone="no"?>
<!DOCTYPE svg PUBLIC "-//W3C//DTD SVG 1.1//EN"
 "http://www.w3.org/Graphics/SVG/1.1/DTD/svg11.dtd">
<!-- Generated by graphviz version 2.40.1 (20161225.0304)
 -->
<!-- Title: dependencies Pages: 1 -->
<svg width="1270pt" height="284pt"
 viewBox="0.00 0.00 1270.00 284.00" xmlns="http://www.w3.org/2000/svg" xmlns:xlink="http://www.w3.org/1999/xlink">
<g id="graph0" class="graph" transform="scale(1 1) rotate(0) translate(4 280)">
<title>dependencies</title>
<polygon fill="#ffffff" stroke="transparent" points="-4,4 -4,-280 1266,-280 1266,4 -4,4"/>
<text text-anchor="start" x="610.0091" y="-42.4" font-family="sans-serif" font-weight="bold" font-size="14.00" fill="#000000">Legend</text>
<polygon fill="#ffffb3" stroke="transparent" points="397,-10 397,-30 417,-30 417,-10 397,-10"/>
<text text-anchor="start" x="420.629" y="-15.4" font-family="sans-serif" font-size="14.00" fill="#000000"> &#160;Declarations</text>
<polygon fill="#8dd3c7" stroke="transparent" points="510,-10 510,-30 530,-30 530,-10 510,-10"/>
<text text-anchor="start" x="533.7251" y="-15.4" font-family="sans-serif" font-size="14.00" fill="#000000"> &#160;Module</text>
<polygon fill="#80b1d3" stroke="transparent" points="596,-10 596,-30 616,-30 616,-10 596,-10"/>
<text text-anchor="start" x="619.7812" y="-15.4" font-family="sans-serif" font-size="14.00" fill="#000000"> &#160;Bootstrap</text>
<polygon fill="#fdb462" stroke="transparent" points="693,-10 693,-30 713,-30 713,-10 693,-10"/>
<text text-anchor="start" x="716.6732" y="-15.4" font-family="sans-serif" font-size="14.00" fill="#000000"> &#160;Providers</text>
<polygon fill="#fb8072" stroke="transparent" points="789,-10 789,-30 809,-30 809,-10 789,-10"/>
<text text-anchor="start" x="812.7258" y="-15.4" font-family="sans-serif" font-size="14.00" fill="#000000"> &#160;Exports</text>
<g id="clust1" class="cluster">
<title>cluster_ContactsModule</title>
<polygon fill="none" stroke="#000000" stroke-dasharray="1,5" points="8,-70 8,-268 1254,-268 1254,-70 8,-70"/>
</g>
<g id="clust2" class="cluster">
<title>cluster_ContactsModule_declarations</title>
<polygon fill="none" stroke="#000000" points="804,-78 804,-130 1246,-130 1246,-78 804,-78"/>
</g>
<g id="clust6" class="cluster">
<title>cluster_ContactsModule_imports</title>
<polygon fill="none" stroke="#000000" points="335,-78 335,-130 796,-130 796,-78 335,-78"/>
</g>
<g id="clust7" class="cluster">
<title>cluster_ContactsModule_exports</title>
<polygon fill="none" stroke="#000000" points="540,-208 540,-260 690,-260 690,-208 540,-208"/>
</g>
<g id="clust9" class="cluster">
<title>cluster_ContactsModule_providers</title>
<polygon fill="none" stroke="#000000" points="16,-78 16,-130 327,-130 327,-78 16,-78"/>
</g>
<!-- ContactsComponent -->
<g id="node1" class="node">
<title>ContactsComponent</title>
<polygon fill="#ffffb3" stroke="#000000" points="1238.3244,-122 1107.6756,-122 1107.6756,-86 1238.3244,-86 1238.3244,-122"/>
<text text-anchor="middle" x="1173" y="-99.8" font-family="Times,serif" font-size="14.00" fill="#000000">ContactsComponent</text>
</g>
<!-- ContactsModule -->
<g id="node4" class="node">
<title>ContactsModule</title>
<polygon fill="#8dd3c7" stroke="#000000" points="669.0424,-187 666.0424,-191 645.0424,-191 642.0424,-187 560.9576,-187 560.9576,-151 669.0424,-151 669.0424,-187"/>
<text text-anchor="middle" x="615" y="-164.8" font-family="Times,serif" font-size="14.00" fill="#000000">ContactsModule</text>
</g>
<!-- ContactsComponent&#45;&gt;ContactsModule -->
<g id="edge1" class="edge">
<title>ContactsComponent&#45;&gt;ContactsModule</title>
<path fill="none" stroke="#000000" d="M1173,-122.0109C1173,-144.4852 1173,-180 1173,-180 1173,-180 679.2646,-180 679.2646,-180"/>
<polygon fill="#000000" stroke="#000000" points="679.2647,-176.5001 669.2646,-180 679.2646,-183.5001 679.2647,-176.5001"/>
</g>
<!-- CardComponent -->
<g id="node2" class="node">
<title>CardComponent</title>
<polygon fill="#ffffb3" stroke="#000000" points="1090.0452,-122 981.9548,-122 981.9548,-86 1090.0452,-86 1090.0452,-122"/>
<text text-anchor="middle" x="1036" y="-99.8" font-family="Times,serif" font-size="14.00" fill="#000000">CardComponent</text>
</g>
<!-- CardComponent&#45;&gt;ContactsModule -->
<g id="edge2" class="edge">
<title>CardComponent&#45;&gt;ContactsModule</title>
<path fill="none" stroke="#000000" d="M1036,-122.1289C1036,-142.5724 1036,-173 1036,-173 1036,-173 679.1765,-173 679.1765,-173"/>
<polygon fill="#000000" stroke="#000000" points="679.1766,-169.5001 669.1765,-173 679.1765,-176.5001 679.1766,-169.5001"/>
</g>
<!-- ContactsListComponent -->
<g id="node3" class="node">
<title>ContactsListComponent</title>
<polygon fill="#ffffb3" stroke="#000000" points="964.1024,-122 811.8976,-122 811.8976,-86 964.1024,-86 964.1024,-122"/>
<text text-anchor="middle" x="888" y="-99.8" font-family="Times,serif" font-size="14.00" fill="#000000">ContactsListComponent</text>
</g>
<!-- ContactsListComponent&#45;&gt;ContactsModule -->
<g id="edge3" class="edge">
<title>ContactsListComponent&#45;&gt;ContactsModule</title>
<path fill="none" stroke="#000000" d="M888,-122.2667C888,-140.5552 888,-166 888,-166 888,-166 679.2624,-166 679.2624,-166"/>
<polygon fill="#000000" stroke="#000000" points="679.2625,-162.5001 669.2624,-166 679.2624,-169.5001 679.2625,-162.5001"/>
</g>
<!-- ContactsComponent  -->
<g id="node9" class="node">
<title>ContactsComponent </title>
<polygon fill="#fb8072" stroke="#000000" points="681.8241,-252 548.1759,-252 548.1759,-216 681.8241,-216 681.8241,-252"/>
<text text-anchor="middle" x="615" y="-229.8" font-family="Times,serif" font-size="14.00" fill="#000000">ContactsComponent </text>
</g>
<!-- ContactsModule&#45;&gt;ContactsComponent  -->
<g id="edge8" class="edge">
<title>ContactsModule&#45;&gt;ContactsComponent </title>
<path fill="none" stroke="#000000" stroke-dasharray="5,2" d="M615,-187.1061C615,-187.1061 615,-205.991 615,-205.991"/>
<polygon fill="#000000" stroke="#000000" points="611.5001,-205.9909 615,-215.991 618.5001,-205.991 611.5001,-205.9909"/>
</g>
<!-- BrowserModule -->
<g id="node5" class="node">
<title>BrowserModule</title>
<polygon fill="#8dd3c7" stroke="#000000" points="788.4734,-122 785.4734,-126 764.4734,-126 761.4734,-122 681.5266,-122 681.5266,-86 788.4734,-86 788.4734,-122"/>
<text text-anchor="middle" x="735" y="-99.8" font-family="Times,serif" font-size="14.00" fill="#000000">BrowserModule</text>
</g>
<!-- BrowserModule&#45;&gt;ContactsModule -->
<g id="edge4" class="edge">
<title>BrowserModule&#45;&gt;ContactsModule</title>
<path fill="none" stroke="#000000" d="M735.1994,-122.0091C735.1994,-138.0494 735.1994,-159 735.1994,-159 735.1994,-159 679.122,-159 679.122,-159"/>
<polygon fill="#000000" stroke="#000000" points="679.122,-155.5001 669.122,-159 679.1219,-162.5001 679.122,-155.5001"/>
</g>
<!-- RouterModule -->
<g id="node6" class="node">
<title>RouterModule</title>
<polygon fill="#8dd3c7" stroke="#000000" points="663.6528,-122 660.6528,-126 639.6528,-126 636.6528,-122 566.3472,-122 566.3472,-86 663.6528,-86 663.6528,-122"/>
<text text-anchor="middle" x="615" y="-99.8" font-family="Times,serif" font-size="14.00" fill="#000000">RouterModule</text>
</g>
<!-- RouterModule&#45;&gt;ContactsModule -->
<g id="edge5" class="edge">
<title>RouterModule&#45;&gt;ContactsModule</title>
<path fill="none" stroke="#000000" d="M615,-122.1061C615,-122.1061 615,-140.991 615,-140.991"/>
<polygon fill="#000000" stroke="#000000" points="611.5001,-140.9909 615,-150.991 618.5001,-140.991 611.5001,-140.9909"/>
</g>
<!-- FormsModule -->
<g id="node7" class="node">
<title>FormsModule</title>
<polygon fill="#8dd3c7" stroke="#000000" points="548.8288,-122 545.8288,-126 524.8288,-126 521.8288,-122 453.1712,-122 453.1712,-86 548.8288,-86 548.8288,-122"/>
<text text-anchor="middle" x="501" y="-99.8" font-family="Times,serif" font-size="14.00" fill="#000000">FormsModule</text>
</g>
<!-- FormsModule&#45;&gt;ContactsModule -->
<g id="edge6" class="edge">
<title>FormsModule&#45;&gt;ContactsModule</title>
<path fill="none" stroke="#000000" d="M500.712,-122.0091C500.712,-138.0494 500.712,-159 500.712,-159 500.712,-159 550.8682,-159 550.8682,-159"/>
<polygon fill="#000000" stroke="#000000" points="550.8682,-162.5001 560.8682,-159 550.8682,-155.5001 550.8682,-162.5001"/>
</g>
<!-- MenuModule -->
<g id="node8" class="node">
<title>MenuModule</title>
<polygon fill="#8dd3c7" stroke="#000000" points="435.2092,-122 432.2092,-126 411.2092,-126 408.2092,-122 342.7908,-122 342.7908,-86 435.2092,-86 435.2092,-122"/>
<text text-anchor="middle" x="389" y="-99.8" font-family="Times,serif" font-size="14.00" fill="#000000">MenuModule</text>
</g>
<!-- MenuModule&#45;&gt;ContactsModule -->
<g id="edge7" class="edge">
<title>MenuModule&#45;&gt;ContactsModule</title>
<path fill="none" stroke="#000000" d="M389,-122.2667C389,-140.5552 389,-166 389,-166 389,-166 550.8674,-166 550.8674,-166"/>
<polygon fill="#000000" stroke="#000000" points="550.8674,-169.5001 560.8674,-166 550.8673,-162.5001 550.8674,-169.5001"/>
</g>
<!-- ContactsService -->
<g id="node10" class="node">
<title>ContactsService</title>
<ellipse fill="#fdb462" stroke="#000000" cx="245" cy="-104" rx="73.5714" ry="18"/>
<text text-anchor="middle" x="245" y="-99.8" font-family="Times,serif" font-size="14.00" fill="#000000">ContactsService</text>
</g>
<!-- ContactsService&#45;&gt;ContactsModule -->
<g id="edge9" class="edge">
<title>ContactsService&#45;&gt;ContactsModule</title>
<path fill="none" stroke="#000000" d="M245,-122.1289C245,-142.5724 245,-173 245,-173 245,-173 550.8026,-173 550.8026,-173"/>
<polygon fill="#000000" stroke="#000000" points="550.8026,-176.5001 560.8026,-173 550.8025,-169.5001 550.8026,-176.5001"/>
</g>
<!-- PopupService -->
<g id="node11" class="node">
<title>PopupService</title>
<ellipse fill="#fdb462" stroke="#000000" cx="89" cy="-104" rx="64.8486" ry="18"/>
<text text-anchor="middle" x="89" y="-99.8" font-family="Times,serif" font-size="14.00" fill="#000000">PopupService</text>
</g>
<!-- PopupService&#45;&gt;ContactsModule -->
<g id="edge10" class="edge">
<title>PopupService&#45;&gt;ContactsModule</title>
<path fill="none" stroke="#000000" d="M89,-122.0109C89,-144.4852 89,-180 89,-180 89,-180 550.6899,-180 550.6899,-180"/>
<polygon fill="#000000" stroke="#000000" points="550.69,-183.5001 560.6899,-180 550.6899,-176.5001 550.69,-183.5001"/>
</g>
</g>
</svg>
